# xmcd CD database file
#
# Track frame offsets:
#	150
#	21331
#	35065
#	59217
#	77943
#	97389
#	116641
#	135841
#	155341
#	171395
#	194912
#	214009
#
# Disc length: 3155 seconds
#
# Revision: 1
# Processed by: cddbd v1.5.2PL0 Copyright (c) Steve Scherf et al.
# Submitted via: CDex 1.70beta2
#
DISCID=ba0c510c
DTITLE=Гвердцители Тамара - LIMITED COLLECTION
DYEAR=1900
DGENRE=Unknown
TTITLE0=Виват, король!
TTITLE1=Не ревнуй!
TTITLE2=Чио-чио сан
TTITLE3=Иерусалим
TTITLE4=Мамины глаза
TTITLE5=Сильней любить
TTITLE6=Ностальгия
TTITLE7=Посвящение женщине
TTITLE8=Воробышек
TTITLE9=Моя любимая Пиаф
TTITLE10=Спасибо, музыка тебе!
TTITLE11=Грузия
EXTD=
EXTT0=
EXTT1=
EXTT2=
EXTT3=
EXTT4=
EXTT5=
EXTT6=
EXTT7=
EXTT8=
EXTT9=
EXTT10=
EXTT11=
PLAYORDER=
